<?xml version="1.0" encoding="UTF-8" standalone="no"?>
<svg
   width="243.72223"
   height="203.9165"
   viewBox="0 0 243.72223 203.9165"
   version="1.1"
   xml:space="preserve"
   style="clip-rule:evenodd;fill-rule:evenodd;stroke-linejoin:round;stroke-miterlimit:2"
   id="svg80"
   sodipodi:docname="macher.svg"
   inkscape:version="1.2.2 (b0a8486541, 2022-12-01)"
   xmlns:inkscape="http://www.inkscape.org/namespaces/inkscape"
   xmlns:sodipodi="http://sodipodi.sourceforge.net/DTD/sodipodi-0.dtd"
   xmlns="http://www.w3.org/2000/svg"
   xmlns:svg="http://www.w3.org/2000/svg"><defs
     id="defs84" /><sodipodi:namedview
     id="namedview82"
     pagecolor="#ffffff"
     bordercolor="#111111"
     borderopacity="1"
     inkscape:showpageshadow="0"
     inkscape:pageopacity="0"
     inkscape:pagecheckerboard="1"
     inkscape:deskcolor="#d1d1d1"
     showgrid="false"
     inkscape:zoom="2.8284271"
     inkscape:cx="16.617009"
     inkscape:cy="71.417785"
     inkscape:window-width="1920"
     inkscape:window-height="1001"
     inkscape:window-x="0"
     inkscape:window-y="25"
     inkscape:window-maximized="1"
     inkscape:current-layer="svg80"
     showguides="true"><sodipodi:guide
       position="194.13456,101.5663"
       orientation="0,-1"
       id="guide273"
       inkscape:locked="false" /><sodipodi:guide
       position="39.177862,152.91967"
       orientation="0,-1"
       id="guide3007"
       inkscape:locked="false" /><sodipodi:guide
       position="50.416346,20.775605"
       orientation="1,0"
       id="guide3039"
       inkscape:locked="false" /></sodipodi:namedview><rect
     style="fill:#ffffff;stroke-width:2.58494;stroke-dasharray:2.58494, 7.75479"
     id="rect296"
     width="243.72223"
     height="203.9165"
     x="0"
     y="0" /><g
     id="g3037"><g
       id="g26"><path
         d="m 121.38,166.945 0.51,-0.9 c 0.59,0.41 1.2,0.65 1.89,0.65 0.96,0 1.25,-0.38 1.25,-1.04 0,-0.79 -0.37,-0.95 -1.49,-1.25 -0.99,-0.27 -1.8,-0.79 -1.8,-2.19 0,-1.03 0.66,-1.93 2.21,-1.93 0.85,0 1.44,0.17 1.96,0.47 l -0.42,0.96 c -0.59,-0.3 -0.96,-0.39 -1.49,-0.39 -0.76,0 -1.11,0.27 -1.11,0.87 0,0.66 0.3,0.83 1.27,1.1 1.08,0.3 2.07,0.72 2.07,2.31 0,1.47 -0.83,2.12 -2.5,2.12 -0.96,-0.01 -1.86,-0.38 -2.35,-0.78 z"
         style="fill-rule:nonzero"
         id="path2" /><path
         d="m 127.78,163.985 c 0,-2.69 1.07,-3.71 2.82,-3.71 0.8,0 1.4,0.21 2,0.8 l -0.71,0.85 c -0.42,-0.42 -0.75,-0.62 -1.34,-0.62 -1.07,0 -1.48,0.47 -1.48,2.68 0,2.17 0.45,2.69 1.58,2.69 0.58,0 0.9,-0.28 1.3,-0.65 l 0.75,0.8 c -0.52,0.56 -1.16,0.87 -2.12,0.87 -1.8,0.02 -2.8,-1.17 -2.8,-3.71 z"
         style="fill-rule:nonzero"
         id="path4" /><path
         d="m 134.53,157.315 h 1.21 v 3.93 c 0.62,-0.58 1.25,-0.97 2.07,-0.97 1.02,0 1.71,0.52 1.71,1.72 v 5.53 h -1.21 v -5.15 c 0,-0.8 -0.23,-1.03 -0.86,-1.03 -0.56,0 -1.2,0.4 -1.71,0.85 v 5.33 h -1.21 z"
         style="fill-rule:nonzero"
         id="path6" /><path
         d="m 142.01,160.465 h 0.95 l 0.2,1 c 0.52,-0.65 1.17,-1.13 1.99,-1.13 0.09,0 0.2,0.01 0.25,0.04 l -0.14,1.3 c -0.13,-0.04 -0.28,-0.06 -0.42,-0.06 -0.65,0 -1.09,0.24 -1.61,0.72 v 5.19 h -1.21 v -7.06 z"
         style="fill-rule:nonzero"
         id="path8" /><path
         d="m 146.62,163.985 c 0,-2.68 1.1,-3.71 2.76,-3.71 1.68,0 2.64,0.96 2.64,3.51 v 0.48 h -4.1 c 0.03,1.93 0.45,2.41 1.62,2.41 0.76,0 1.2,-0.3 1.66,-0.66 l 0.66,0.87 c -0.69,0.56 -1.33,0.82 -2.35,0.82 -1.85,0.01 -2.89,-1.07 -2.89,-3.72 z m 1.31,-0.63 h 2.81 c 0,-1.62 -0.37,-2.11 -1.38,-2.11 -0.83,-0.01 -1.33,0.42 -1.43,2.11 z"
         style="fill-rule:nonzero"
         id="path10" /><path
         d="m 154.47,161.405 -1.04,-0.17 v -0.78 h 2.26 v 7.06 h -1.21 v -6.11 z m -0.25,-3.11 c 0,-0.49 0.37,-0.87 0.85,-0.87 0.49,0 0.86,0.37 0.86,0.87 0,0.48 -0.37,0.86 -0.87,0.86 -0.49,0 -0.84,-0.38 -0.84,-0.86 z"
         style="fill-rule:nonzero"
         id="path12" /><path
         d="m 158.26,160.465 h 0.94 l 0.18,0.87 c 0.62,-0.62 1.33,-1.06 2.16,-1.06 1.01,0 1.71,0.52 1.71,1.72 v 5.53 h -1.21 v -5.15 c 0,-0.8 -0.23,-1.03 -0.86,-1.03 -0.56,0 -1.2,0.4 -1.71,0.85 v 5.33 h -1.21 z"
         style="fill-rule:nonzero"
         id="path14" /><path
         d="m 165.26,163.985 c 0,-2.68 1.1,-3.71 2.76,-3.71 1.68,0 2.64,0.96 2.64,3.51 v 0.48 h -4.1 c 0.03,1.93 0.45,2.41 1.62,2.41 0.76,0 1.2,-0.3 1.66,-0.66 l 0.66,0.87 c -0.69,0.56 -1.33,0.82 -2.36,0.82 -1.84,0.01 -2.88,-1.07 -2.88,-3.72 z m 1.31,-0.63 h 2.8 c 0,-1.62 -0.37,-2.11 -1.38,-2.11 -0.82,-0.01 -1.32,0.42 -1.42,2.11 z"
         style="fill-rule:nonzero"
         id="path16" /><path
         d="m 172.71,160.465 h 0.95 l 0.2,1 c 0.52,-0.65 1.17,-1.13 1.99,-1.13 0.08,0 0.2,0.01 0.25,0.04 l -0.14,1.3 c -0.13,-0.04 -0.28,-0.06 -0.42,-0.06 -0.65,0 -1.09,0.24 -1.61,0.72 v 5.19 h -1.21 v -7.06 z"
         style="fill-rule:nonzero"
         id="path18" /><path
         d="m 177.13,166.685 c 0,-0.55 0.42,-0.97 0.96,-0.97 0.55,0 0.96,0.42 0.96,0.97 0,0.55 -0.41,0.97 -0.96,0.97 -0.54,0 -0.96,-0.42 -0.96,-0.97 z"
         style="fill-rule:nonzero"
         id="path20" /><path
         d="m 180.96,163.985 c 0,-2.69 1.07,-3.71 2.82,-3.71 0.8,0 1.4,0.21 2,0.8 l -0.71,0.85 c -0.42,-0.42 -0.75,-0.62 -1.34,-0.62 -1.07,0 -1.48,0.47 -1.48,2.68 0,2.17 0.45,2.69 1.58,2.69 0.58,0 0.9,-0.28 1.3,-0.65 l 0.75,0.8 c -0.52,0.56 -1.16,0.87 -2.12,0.87 -1.8,0.02 -2.8,-1.17 -2.8,-3.71 z"
         style="fill-rule:nonzero"
         id="path22" /><path
         d="m 187.72,157.315 h 1.21 v 3.93 c 0.62,-0.58 1.25,-0.97 2.07,-0.97 1.02,0 1.71,0.52 1.71,1.72 v 5.53 h -1.21 v -5.15 c 0,-0.8 -0.23,-1.03 -0.86,-1.03 -0.56,0 -1.2,0.4 -1.71,0.85 v 5.33 h -1.21 z"
         style="fill-rule:nonzero"
         id="path24" /></g><g
       id="g30"><rect
         x="51"
         y="102.345"
         width="141.73"
         height="51.02"
         id="rect28" /></g><g
       id="g56"><path
         d="m 55.86,99.065 c -1.71,0 -3.21,-0.62 -4.22,-1.57 v -44.94 c 1.13,-1.01 2.6,-1.57 4.22,-1.57 6.9,0 8.32,9.55 8.32,23.7 0,14.83 -1.34,24.38 -8.32,24.38 z m 0.53,-43.87 c -0.45,0 -0.77,0.11 -1.06,0.28 v 38.76 c 0.16,0.17 0.61,0.28 1.06,0.28 3.21,0 3.98,-8.09 3.98,-19.94 0,-11.57 -0.82,-19.38 -3.98,-19.38 z"
         style="fill-rule:nonzero"
         id="path32" /><path
         d="m 68.69,56.655 c -1.14,0 -2.07,-1.29 -2.07,-2.86 0,-1.57 0.93,-2.81 2.07,-2.81 1.14,0 2.03,1.24 2.03,2.81 0,1.57 -0.9,2.86 -2.03,2.86 z m -1.79,41.96 v -35.39 h 3.57 v 35.39 z"
         style="fill-rule:nonzero"
         id="path34" /><path
         d="m 84.6,83.845 -7.71,2.7 c 0.2,4.04 1.22,8.09 3.41,8.09 1.18,0 2.27,-0.45 3.13,-1.12 l 0.97,3.99 c -1.22,1.01 -2.64,1.57 -4.46,1.57 -5.2,0 -6.78,-8.2 -6.78,-18.76 0,-9.21 1.34,-17.52 5.93,-17.52 4.42,0 5.6,6.29 5.6,15.9 -0.01,1.67 -0.01,3.46 -0.09,5.15 z m -5.52,-17.08 c -2.07,0 -2.48,6.01 -2.48,13.09 0,0.95 0,1.91 0.04,2.81 l 4.51,-1.57 c 0.04,-0.95 0.04,-2.02 0.04,-2.86 0,-6.86 -0.25,-11.47 -2.11,-11.47 z"
         style="fill-rule:nonzero"
         id="path36" /><path
         d="m 97.79,99.065 c -1.5,0 -2.8,-0.56 -3.82,-1.57 l 1.06,-4.32 c 0.57,0.56 1.38,1.01 2.23,1.01 2.35,0 3.29,-3.2 3.29,-7.64 0,-10.45 -6.33,-13.54 -6.33,-24.88 0,-5.57 2.15,-10.68 6.33,-10.68 1.58,0 2.76,0.56 3.69,1.57 l -0.97,3.93 c -0.61,-0.56 -1.34,-0.96 -2.19,-0.96 -2.11,0 -3.04,2.75 -3.04,6.07 0,9.44 6.37,12.92 6.37,24.88 -0.01,6.52 -1.95,12.59 -6.62,12.59 z"
         style="fill-rule:nonzero"
         id="path38" /><path
         d="m 113.01,99.065 c -4.91,0 -6.49,-7.41 -6.49,-18.14 0,-10.73 1.58,-18.14 6.49,-18.14 1.34,0 2.35,0.67 3.08,1.57 l -0.97,3.71 c -0.41,-0.56 -1.02,-1.01 -1.71,-1.01 -2.39,0 -3.25,5.34 -3.25,13.82 0,8.48 0.85,13.71 3.25,13.71 0.69,0 1.3,-0.45 1.71,-1.01 l 0.97,3.93 c -0.73,0.89 -1.74,1.56 -3.08,1.56 z"
         style="fill-rule:nonzero"
         id="path40" /><path
         d="m 125.96,98.615 v -28.25 c 0,-2.25 -0.69,-3.59 -2.44,-3.59 -0.65,0 -1.18,0.22 -1.62,0.51 v 31.34 h -3.57 v -47.19 h 3.57 v 12.24 c 0.73,-0.51 1.71,-0.84 2.6,-0.84 3.53,0 5.03,2.64 5.03,7.53 v 28.25 z"
         style="fill-rule:nonzero"
         id="path42" /><path
         d="m 139.03,67.325 c -0.37,-0.23 -0.85,-0.28 -1.3,-0.28 -0.57,0 -1.14,0.11 -1.5,0.34 v 31.23 h -3.57 v -34.26 c 1.42,-0.9 3.25,-1.57 5.48,-1.57 0.49,0 1.06,0.06 1.58,0.11 z"
         style="fill-rule:nonzero"
         id="path44" /><path
         d="m 151.89,83.845 -7.71,2.7 c 0.2,4.04 1.22,8.09 3.41,8.09 1.18,0 2.27,-0.45 3.12,-1.12 l 0.97,3.99 c -1.22,1.01 -2.64,1.57 -4.46,1.57 -5.2,0 -6.78,-8.2 -6.78,-18.76 0,-9.21 1.34,-17.52 5.93,-17.52 4.42,0 5.6,6.29 5.6,15.9 0,1.67 0,3.46 -0.08,5.15 z m -5.52,-17.08 c -2.07,0 -2.48,6.01 -2.48,13.09 0,0.95 0,1.91 0.04,2.81 l 4.51,-1.57 c 0.04,-0.95 0.04,-2.02 0.04,-2.86 0,-6.86 -0.24,-11.47 -2.11,-11.47 z"
         style="fill-rule:nonzero"
         id="path46" /><path
         d="m 156.44,56.655 c -1.14,0 -2.07,-1.29 -2.07,-2.86 0,-1.57 0.93,-2.81 2.07,-2.81 1.14,0 2.03,1.24 2.03,2.81 0,1.57 -0.89,2.86 -2.03,2.86 z m -1.79,41.96 v -35.39 h 3.57 v 35.39 z"
         style="fill-rule:nonzero"
         id="path48" /><path
         d="m 168.98,98.615 v -28.42 c 0,-2.25 -0.65,-3.37 -2.31,-3.37 -0.61,0 -1.18,0.17 -1.75,0.45 v 31.34 h -3.57 v -34.26 c 1.46,-1.01 3.33,-1.57 5.24,-1.57 4.22,0 5.97,2.19 5.97,7.58 v 28.25 z"
         style="fill-rule:nonzero"
         id="path50" /><path
         d="m 186.68,83.845 -7.71,2.7 c 0.2,4.04 1.22,8.09 3.41,8.09 1.18,0 2.27,-0.45 3.13,-1.12 l 0.97,3.99 c -1.22,1.01 -2.64,1.57 -4.46,1.57 -5.2,0 -6.78,-8.2 -6.78,-18.76 0,-9.21 1.34,-17.52 5.93,-17.52 4.42,0 5.6,6.29 5.6,15.9 -0.01,1.67 -0.01,3.46 -0.09,5.15 z m -5.52,-17.08 c -2.07,0 -2.48,6.01 -2.48,13.09 0,0.95 0,1.91 0.04,2.81 l 4.5,-1.57 c 0.04,-0.95 0.04,-2.02 0.04,-2.86 0.01,-6.86 -0.24,-11.47 -2.1,-11.47 z"
         style="fill-rule:nonzero"
         id="path52" /><path
         d="m 195.81,67.325 c -0.37,-0.23 -0.85,-0.28 -1.3,-0.28 -0.57,0 -1.14,0.11 -1.5,0.34 v 31.23 h -3.57 v -34.26 c 1.42,-0.9 3.25,-1.57 5.48,-1.57 0.49,0 1.06,0.06 1.58,0.11 z"
         style="fill-rule:nonzero"
         id="path54" /></g></g><g
     id="g78"><path
       d="m 72.01,140.235 v -26.05 h 2.82 v 26.04 h -2.82 z"
       style="fill:#ffffff;fill-rule:nonzero"
       id="path58" /><path
       d="m 83.12,140.245 v -15.61 c 0,-1.24 -0.52,-1.98 -1.84,-1.98 -0.49,0 -0.89,0.12 -1.23,0.28 v 17.3 h -2.7 v -26.05 h 2.7 v 6.76 c 0.55,-0.28 1.29,-0.46 1.96,-0.46 2.67,0 3.81,1.46 3.81,4.16 v 15.6 z"
       style="fill:#ffffff;fill-rule:nonzero"
       id="path60" /><path
       d="m 93.06,122.965 c -0.28,-0.12 -0.64,-0.16 -0.98,-0.16 -0.43,0 -0.86,0.06 -1.14,0.19 v 17.24 h -2.7 v -18.92 c 1.07,-0.5 2.45,-0.87 4.14,-0.87 0.37,0 0.8,0.03 1.2,0.06 z"
       style="fill:#ffffff;fill-rule:nonzero"
       id="path62" /><path
       d="m 102.85,132.075 -5.83,1.49 c 0.15,2.23 0.92,4.46 2.58,4.46 0.89,0 1.72,-0.25 2.36,-0.62 l 0.74,2.2 c -0.92,0.56 -1.99,0.87 -3.38,0.87 -3.93,0 -5.12,-4.53 -5.12,-10.36 0,-5.08 1.01,-9.67 4.48,-9.67 3.34,0 4.23,3.47 4.23,8.78 0,0.93 0,1.92 -0.06,2.85 z m -4.17,-9.42 c -1.56,0 -1.87,3.32 -1.87,7.22 0,0.53 0,1.05 0.03,1.55 l 3.41,-0.87 c 0.03,-0.53 0.03,-1.12 0.03,-1.58 0,-3.78 -0.19,-6.32 -1.6,-6.32 z"
       style="fill:#ffffff;fill-rule:nonzero"
       id="path64" /><path
       d="m 123.26,140.235 -0.92,-16.09 c -0.15,-2.51 -0.15,-4.62 -0.15,-5.83 h -0.06 c -0.09,1.21 -0.21,3.32 -0.55,5.83 l -2.18,16.09 h -2.46 l -2.18,-16.09 c -0.34,-2.51 -0.49,-4.84 -0.55,-5.83 h -0.06 c 0,1.02 0,3.32 -0.15,5.83 l -0.92,16.09 h -2.88 l 2.2,-26.05 h 3.13 l 2.18,15.91 c 0.31,2.2 0.37,4.09 0.43,4.96 h 0.06 c 0.06,-0.87 0.12,-2.76 0.43,-4.96 l 2.18,-15.91 h 3.13 l 2.21,26.04 h -2.89 z"
       style="fill:#ffffff;fill-rule:nonzero"
       id="path66" /><path
       d="m 132.62,140.475 c -3.74,0 -4.85,-2.79 -4.85,-7.16 0,-4.03 1.5,-7.19 5.89,-8.03 v -0.9 c 0,-1.12 -0.49,-1.67 -1.75,-1.67 -1.04,0 -1.99,0.28 -2.85,0.68 l -0.71,-2.08 c 1.07,-0.53 2.52,-0.87 3.84,-0.87 3.01,0 4.11,1.4 4.11,4 v 15.16 c -0.82,0.5 -2.33,0.87 -3.68,0.87 z m 1.05,-13.33 c -2.64,0.65 -3.19,3.35 -3.19,6.08 0,2.85 0.28,4.93 2.09,4.93 0.43,0 0.8,-0.09 1.1,-0.25 z"
       style="fill:#ffffff;fill-rule:nonzero"
       id="path68" /><path
       d="m 143.3,140.475 c -3.71,0 -4.91,-4.09 -4.91,-10.01 0,-5.92 1.2,-10.02 4.91,-10.02 1.01,0 1.78,0.37 2.33,0.87 l -0.74,2.05 c -0.31,-0.31 -0.77,-0.56 -1.29,-0.56 -1.81,0 -2.45,2.95 -2.45,7.63 0,4.68 0.64,7.57 2.45,7.57 0.52,0 0.98,-0.25 1.29,-0.56 l 0.74,2.17 c -0.55,0.49 -1.31,0.86 -2.33,0.86 z"
       style="fill:#ffffff;fill-rule:nonzero"
       id="path70" /><path
       d="m 153.15,140.245 v -15.61 c 0,-1.24 -0.52,-1.98 -1.84,-1.98 -0.49,0 -0.89,0.12 -1.23,0.28 v 17.3 h -2.7 v -26.05 h 2.7 v 6.76 c 0.55,-0.28 1.29,-0.46 1.96,-0.46 2.67,0 3.8,1.46 3.8,4.16 v 15.6 z"
       style="fill:#ffffff;fill-rule:nonzero"
       id="path72" /><path
       d="m 166.6,132.075 -5.83,1.49 c 0.15,2.23 0.92,4.46 2.58,4.46 0.89,0 1.72,-0.25 2.36,-0.62 l 0.74,2.2 c -0.92,0.56 -1.99,0.87 -3.38,0.87 -3.93,0 -5.12,-4.53 -5.12,-10.36 0,-5.08 1.01,-9.67 4.48,-9.67 3.34,0 4.23,3.47 4.23,8.78 0,0.93 0,1.92 -0.06,2.85 z m -4.18,-9.42 c -1.56,0 -1.87,3.32 -1.87,7.22 0,0.53 0,1.05 0.03,1.55 l 3.41,-0.87 c 0.03,-0.53 0.03,-1.12 0.03,-1.58 0,-3.78 -0.19,-6.32 -1.6,-6.32 z"
       style="fill:#ffffff;fill-rule:nonzero"
       id="path74" /><path
       d="m 173.56,122.965 c -0.28,-0.12 -0.64,-0.16 -0.98,-0.16 -0.43,0 -0.86,0.06 -1.13,0.19 v 17.24 h -2.7 v -18.92 c 1.07,-0.5 2.45,-0.87 4.14,-0.87 0.37,0 0.8,0.03 1.2,0.06 z"
       style="fill:#ffffff;fill-rule:nonzero"
       id="path76" /></g><rect
     style="fill:#a01d4b;fill-opacity:0;stroke:#02000b;stroke-width:0;stroke-linecap:square;stroke-dasharray:none"
     id="rect421"
     width="13.265854"
     height="47.322361"
     x="192.77388"
     y="106.17877" /></svg>
