<svg xmlns="http://www.w3.org/2000/svg" viewBox="0 0 243 243">
    <path style="fill:currentColor" d="M121.5,0A121.52,121.52,0,0,0,77.22,234.68c-1.06-9.61-2-24.4.42-34.89,2.21-9.49,14.25-60.4,14.25-60.4a43.85,43.85,0,0,1-3.63-18c0-16.9,9.79-29.51,22-29.51,10.37,0,15.37,7.78,15.37,17.11,0,10.43-6.63,26-10.06,40.46-2.86,12.09,6.07,22,18,22,21.6,0,38.2-22.77,38.2-55.64,0-29.09-20.91-49.43-50.75-49.43C86.42,66.3,66.12,92.23,66.12,119c0,10.44,4,21.64,9,27.73a3.62,3.62,0,0,1,.84,3.48c-.92,3.84-3,12.09-3.37,13.78-.54,2.23-1.77,2.7-4.07,1.63-15.17-7.07-24.66-29.25-24.66-47.07,0-38.33,27.85-73.53,80.28-73.53,42.15,0,74.9,30,74.9,70.17,0,41.88-26.4,75.58-63.05,75.58-12.31,0-23.88-6.4-27.84-14,0,0-6.1,23.19-7.57,28.88-2.75,10.55-10.15,23.78-15.1,31.85A121.51,121.51,0,1,0,121.5,0"/>
</svg>